<svg version="1.1" xmlns="http://www.w3.org/2000/svg" width="50" height="50">
<path d="M0 0 C4.9393334 0.10870793 8.84905445 0.22467191 12.91699219 3.3293457 C16.14851019 7.12089258 16.38650246 10.47000275 16.01464844 15.31762695 C15.89992187 16.37336914 15.78519531 17.42911133 15.66699219 18.5168457 C15.57548001 19.86405246 15.49122908 21.21176617 15.41308594 22.55981445 C15.19986368 26.21505318 14.94291926 29.86573932 14.66699219 33.5168457 C10.79015132 34.70971982 7.75077295 35.5168457 3.66699219 35.5168457 C3.66699219 37.4968457 3.66699219 39.4768457 3.66699219 41.5168457 C-5.11145301 43.56089116 -13.37199537 43.73452212 -22.33300781 43.5168457 C-22.92409771 31.84124828 -23.4756067 20.2099543 -23.33300781 8.5168457 C-17.88800781 8.0218457 -17.88800781 8.0218457 -12.33300781 7.5168457 C-12.51863281 6.5474707 -12.70425781 5.5780957 -12.89550781 4.5793457 C-13.03988281 3.5687207 -13.18425781 2.5580957 -13.33300781 1.5168457 C-10.66769938 -1.14846273 -3.56991506 0.02170639 0 0 Z M-10.33300781 3.5168457 C-10.00300781 4.8368457 -9.67300781 6.1568457 -9.33300781 7.5168457 C-7.84800781 7.8262207 -7.84800781 7.8262207 -6.33300781 8.1418457 C-2.17284836 9.28335287 0.6271271 11.60280092 3.87011719 14.37231445 C4.46308594 14.75000977 5.05605469 15.12770508 5.66699219 15.5168457 C6.65699219 15.1868457 7.64699219 14.8568457 8.66699219 14.5168457 C8.66699219 15.1768457 8.66699219 15.8368457 8.66699219 16.5168457 C7.34699219 16.8468457 6.02699219 17.1768457 4.66699219 17.5168457 C4.66699219 18.1768457 4.66699219 18.8368457 4.66699219 19.5168457 C5.98699219 19.5168457 7.30699219 19.5168457 8.66699219 19.5168457 C8.66699219 20.1768457 8.66699219 20.8368457 8.66699219 21.5168457 C7.01699219 21.5168457 5.36699219 21.5168457 3.66699219 21.5168457 C3.99699219 22.8368457 4.32699219 24.1568457 4.66699219 25.5168457 C6.31699219 25.5168457 7.96699219 25.5168457 9.66699219 25.5168457 C7.68699219 26.1768457 5.70699219 26.8368457 3.66699219 27.5168457 C3.99699219 28.5068457 4.32699219 29.4968457 4.66699219 30.5168457 C7.03967018 31.8895237 7.03967018 31.8895237 11.66699219 31.5168457 C11.99699219 25.5768457 12.32699219 19.6368457 12.66699219 13.5168457 C9.69699219 13.0218457 9.69699219 13.0218457 6.66699219 12.5168457 C6.00699219 9.5468457 5.34699219 6.5768457 4.66699219 3.5168457 C-0.28300781 3.5168457 -5.23300781 3.5168457 -10.33300781 3.5168457 Z M7.66699219 5.5168457 C7.66699219 6.8368457 7.66699219 8.1568457 7.66699219 9.5168457 C8.65699219 9.5168457 9.64699219 9.5168457 10.66699219 9.5168457 C10.00699219 8.1968457 9.34699219 6.8768457 8.66699219 5.5168457 C8.33699219 5.5168457 8.00699219 5.5168457 7.66699219 5.5168457 Z M-20.33300781 11.5168457 C-20.45319543 17.31255952 -20.34346997 23.10110566 -20.08300781 28.8918457 C-20.03660156 30.05458008 -19.99019531 31.21731445 -19.94238281 32.4152832 C-19.22670706 36.05788929 -18.31180852 37.34750171 -15.33300781 39.5168457 C-12.13345827 39.37335223 -12.13345827 39.37335223 -9.33300781 38.5168457 C-9.00300781 39.1768457 -8.67300781 39.8368457 -8.33300781 40.5168457 C-8.33300781 39.8568457 -8.33300781 39.1968457 -8.33300781 38.5168457 C-7.34300781 38.8468457 -6.35300781 39.1768457 -5.33300781 39.5168457 C-3.35300781 39.1868457 -1.37300781 38.8568457 0.66699219 38.5168457 C0.66699219 32.9068457 0.66699219 27.2968457 0.66699219 21.5168457 C-1.80800781 21.0218457 -1.80800781 21.0218457 -4.33300781 20.5168457 C-4.33300781 21.1768457 -4.33300781 21.8368457 -4.33300781 22.5168457 C-8.95300781 22.8468457 -13.57300781 23.1768457 -18.33300781 23.5168457 C-18.33300781 22.8568457 -18.33300781 22.1968457 -18.33300781 21.5168457 C-17.6459375 21.54004883 -16.95886719 21.56325195 -16.25097656 21.5871582 C-15.34992187 21.60520508 -14.44886719 21.62325195 -13.52050781 21.6418457 C-12.6271875 21.66504883 -11.73386719 21.68825195 -10.81347656 21.7121582 C-8.07898067 21.69970397 -8.07898067 21.69970397 -5.33300781 19.5168457 C-5.99300781 16.5468457 -6.65300781 13.5768457 -7.33300781 10.5168457 C-11.8491838 10.44030035 -15.92385998 10.41455875 -20.33300781 11.5168457 Z M-5.33300781 11.5168457 C-5.00300781 13.4968457 -4.67300781 15.4768457 -4.33300781 17.5168457 C-2.68300781 17.1868457 -1.03300781 16.8568457 0.66699219 16.5168457 C-0.61363266 14.80934591 -1.95068338 13.14310974 -3.33300781 11.5168457 C-3.99300781 11.5168457 -4.65300781 11.5168457 -5.33300781 11.5168457 Z " fill="#000000" transform="translate(29.3330078125,3.483154296875)"/>
<path d="M0 0 C0 0.66 0 1.32 0 2 C-5.70690634 2.99250545 -11.21408489 3.10477512 -17 3 C-17 2.34 -17 1.68 -17 1 C-11.30494264 0.3583034 -5.73266804 -0.12462322 0 0 Z " fill="#000000" transform="translate(28,34)"/>
<path d="M0 0 C0 0.66 0 1.32 0 2 C-4.62 2.33 -9.24 2.66 -14 3 C-14 2.34 -14 1.68 -14 1 C-9.23692563 0.04738513 -4.8333472 -0.08333357 0 0 Z " fill="#000000" transform="translate(25,29)"/>
<path d="M0 0 C0.66 0 1.32 0 2 0 C2 0.66 2 1.32 2 2 C1.34 2 0.68 2 0 2 C0 1.34 0 0.68 0 0 Z " fill="#000000" transform="translate(10,19)"/>
<path d="M0 0 C0.66 0 1.32 0 2 0 C2 0.66 2 1.32 2 2 C1.34 2 0.68 2 0 2 C0 1.34 0 0.68 0 0 Z " fill="#000000" transform="translate(14,16)"/>
<path d="M0 0 C0.99 0.495 0.99 0.495 2 1 C1.01 1.495 1.01 1.495 0 2 C0 1.34 0 0.68 0 0 Z " fill="#000000" transform="translate(10,16)"/>
</svg>